<?xml version="1.0" encoding="UTF-8" standalone="no"?>
<!DOCTYPE svg PUBLIC "-//W3C//DTD SVG 1.1//EN"
 "http://www.w3.org/Graphics/SVG/1.1/DTD/svg11.dtd">
<!-- Generated by graphviz version 2.43.0 (0)
 -->
<!-- Title: Strategy_Tree Pages: 1 -->
<svg width="598pt" height="840pt"
 viewBox="0.00 0.00 598.00 840.47" xmlns="http://www.w3.org/2000/svg" xmlns:xlink="http://www.w3.org/1999/xlink">
<g id="graph0" class="graph" transform="scale(2.56 2.56) rotate(0) translate(4 2147.38)">
<title>Strategy_Tree</title>
<polygon fill="white" stroke="transparent" points="-4,4 -4,-2147.38 1526.72,-2147.38 1526.72,4 -4,4"/>
<!-- P 0 \n. . . \n . . . \n &#160;. . . \n &#160;&#160;. . .  -->
<g id="node1" class="node">
<title>P 0 \n. . . \n . . . \n &#160;. . . \n &#160;&#160;. . . </title>
<polygon fill="darkgrey" stroke="black" points="909.85,-2089 877.04,-2143 811.42,-2143 778.62,-2089 811.42,-2035 877.04,-2035 909.85,-2089"/>
<text text-anchor="middle" x="844.23" y="-2111.9" font-family="Monospace" font-size="12.00" fill="white">P 0 </text>
<text text-anchor="middle" x="844.23" y="-2098.9" font-family="Monospace" font-size="12.00" fill="white">. . . </text>
<text text-anchor="middle" x="844.23" y="-2085.9" font-family="Monospace" font-size="12.00" fill="white"> . . . </text>
<text text-anchor="middle" x="844.23" y="-2072.9" font-family="Monospace" font-size="12.00" fill="white"> &#160;. . . </text>
<text text-anchor="middle" x="844.23" y="-2059.9" font-family="Monospace" font-size="12.00" fill="white"> &#160;&#160;. . . </text>
</g>
<!-- P 0 \n. . . \n . x . \n &#160;. . . \n &#160;&#160;. . .  -->
<g id="node2" class="node">
<title>P 0 \n. . . \n . x . \n &#160;. . . \n &#160;&#160;. . . </title>
<polygon fill="black" stroke="black" points="909.85,-1932 877.04,-1986 811.42,-1986 778.62,-1932 811.42,-1878 877.04,-1878 909.85,-1932"/>
<text text-anchor="middle" x="844.23" y="-1954.9" font-family="Monospace" font-size="12.00" fill="white">P 0 </text>
<text text-anchor="middle" x="844.23" y="-1941.9" font-family="Monospace" font-size="12.00" fill="white">. . . </text>
<text text-anchor="middle" x="844.23" y="-1928.9" font-family="Monospace" font-size="12.00" fill="white"> . x . </text>
<text text-anchor="middle" x="844.23" y="-1915.9" font-family="Monospace" font-size="12.00" fill="white"> &#160;. . . </text>
<text text-anchor="middle" x="844.23" y="-1902.9" font-family="Monospace" font-size="12.00" fill="white"> &#160;&#160;. . . </text>
</g>
<!-- P 0 \n. . . \n . . . \n &#160;. . . \n &#160;&#160;. . . &#45;&gt;P 0 \n. . . \n . x . \n &#160;. . . \n &#160;&#160;. . .  -->
<g id="edge1" class="edge">
<title>P 0 \n. . . \n . . . \n &#160;. . . \n &#160;&#160;. . . &#45;&gt;P 0 \n. . . \n . x . \n &#160;. . . \n &#160;&#160;. . . </title>
<path fill="none" stroke="black" d="M844.23,-2034.66C844.23,-2022.29 844.23,-2009.01 844.23,-1996.26"/>
<polygon fill="black" stroke="black" points="847.73,-1996.18 844.23,-1986.18 840.73,-1996.18 847.73,-1996.18"/>
<text text-anchor="middle" x="874.73" y="-2007.9" font-family="Monospace" font-size="12.00">b2: 1.00</text>
</g>
<!-- P 1 \n. . . \n . . . \n &#160;. . . \n &#160;&#160;o . .  -->
<g id="node3" class="node">
<title>P 1 \n. . . \n . . . \n &#160;. . . \n &#160;&#160;o . . </title>
<polygon fill="red" stroke="black" points="641.85,-1775 609.04,-1829 543.42,-1829 510.62,-1775 543.42,-1721 609.04,-1721 641.85,-1775"/>
<text text-anchor="middle" x="576.23" y="-1797.9" font-family="Monospace" font-size="12.00" fill="white">P 1 </text>
<text text-anchor="middle" x="576.23" y="-1784.9" font-family="Monospace" font-size="12.00" fill="white">. . . </text>
<text text-anchor="middle" x="576.23" y="-1771.9" font-family="Monospace" font-size="12.00" fill="white"> . . . </text>
<text text-anchor="middle" x="576.23" y="-1758.9" font-family="Monospace" font-size="12.00" fill="white"> &#160;. . . </text>
<text text-anchor="middle" x="576.23" y="-1745.9" font-family="Monospace" font-size="12.00" fill="white"> &#160;&#160;o . . </text>
</g>
<!-- P 0 \n. . . \n . x . \n &#160;. . . \n &#160;&#160;. . . &#45;&gt;P 1 \n. . . \n . . . \n &#160;. . . \n &#160;&#160;o . .  -->
<g id="edge2" class="edge">
<title>P 0 \n. . . \n . x . \n &#160;. . . \n &#160;&#160;. . . &#45;&gt;P 1 \n. . . \n . . . \n &#160;. . . \n &#160;&#160;o . . </title>
<path fill="none" stroke="black" d="M796.01,-1903.11C750.33,-1876.69 681.7,-1837 633.31,-1809.01"/>
<polygon fill="black" stroke="black" points="634.93,-1805.9 624.52,-1803.93 631.42,-1811.96 634.93,-1805.9"/>
<text text-anchor="middle" x="749.73" y="-1850.9" font-family="Monospace" font-size="12.00">a4: 0.50</text>
</g>
<!-- P 1 \n. . o \n . . . \n &#160;. . . \n &#160;&#160;. . .  -->
<g id="node8" class="node">
<title>P 1 \n. . o \n . . . \n &#160;. . . \n &#160;&#160;. . . </title>
<polygon fill="red" stroke="black" points="1177.85,-1775 1145.04,-1829 1079.42,-1829 1046.62,-1775 1079.42,-1721 1145.04,-1721 1177.85,-1775"/>
<text text-anchor="middle" x="1112.23" y="-1797.9" font-family="Monospace" font-size="12.00" fill="white">P 1 </text>
<text text-anchor="middle" x="1112.23" y="-1784.9" font-family="Monospace" font-size="12.00" fill="white">. . o </text>
<text text-anchor="middle" x="1112.23" y="-1771.9" font-family="Monospace" font-size="12.00" fill="white"> . . . </text>
<text text-anchor="middle" x="1112.23" y="-1758.9" font-family="Monospace" font-size="12.00" fill="white"> &#160;. . . </text>
<text text-anchor="middle" x="1112.23" y="-1745.9" font-family="Monospace" font-size="12.00" fill="white"> &#160;&#160;. . . </text>
</g>
<!-- P 0 \n. . . \n . x . \n &#160;. . . \n &#160;&#160;. . . &#45;&gt;P 1 \n. . o \n . . . \n &#160;. . . \n &#160;&#160;. . .  -->
<g id="edge7" class="edge">
<title>P 0 \n. . . \n . x . \n &#160;. . . \n &#160;&#160;. . . &#45;&gt;P 1 \n. . o \n . . . \n &#160;. . . \n &#160;&#160;. . . </title>
<path fill="none" stroke="black" d="M892.45,-1903.11C938.14,-1876.69 1006.76,-1837 1055.16,-1809.01"/>
<polygon fill="black" stroke="black" points="1057.04,-1811.96 1063.94,-1803.93 1053.54,-1805.9 1057.04,-1811.96"/>
<text text-anchor="middle" x="1017.73" y="-1850.9" font-family="Monospace" font-size="12.00">c1: 0.50</text>
</g>
<!-- P 0 \n. x . \n . x . \n &#160;. . . \n &#160;&#160;. . .  -->
<g id="node4" class="node">
<title>P 0 \n. x . \n . x . \n &#160;. . . \n &#160;&#160;. . . </title>
<polygon fill="black" stroke="black" points="909.85,-1618 877.04,-1672 811.42,-1672 778.62,-1618 811.42,-1564 877.04,-1564 909.85,-1618"/>
<text text-anchor="middle" x="844.23" y="-1640.9" font-family="Monospace" font-size="12.00" fill="white">P 0 </text>
<text text-anchor="middle" x="844.23" y="-1627.9" font-family="Monospace" font-size="12.00" fill="white">. x . </text>
<text text-anchor="middle" x="844.23" y="-1614.9" font-family="Monospace" font-size="12.00" fill="white"> . x . </text>
<text text-anchor="middle" x="844.23" y="-1601.9" font-family="Monospace" font-size="12.00" fill="white"> &#160;. . . </text>
<text text-anchor="middle" x="844.23" y="-1588.9" font-family="Monospace" font-size="12.00" fill="white"> &#160;&#160;. . . </text>
</g>
<!-- P 1 \n. . . \n . . . \n &#160;. . . \n &#160;&#160;o . . &#45;&gt;P 0 \n. x . \n . x . \n &#160;. . . \n &#160;&#160;. . .  -->
<g id="edge3" class="edge">
<title>P 1 \n. . . \n . . . \n &#160;. . . \n &#160;&#160;o . . &#45;&gt;P 0 \n. x . \n . x . \n &#160;. . . \n &#160;&#160;. . . </title>
<path fill="none" stroke="black" d="M624.45,-1746.11C670.14,-1719.69 738.76,-1680 787.16,-1652.01"/>
<polygon fill="black" stroke="black" points="789.04,-1654.96 795.94,-1646.93 785.54,-1648.9 789.04,-1654.96"/>
<text text-anchor="middle" x="749.73" y="-1693.9" font-family="Monospace" font-size="12.00">b1: 1.00</text>
</g>
<!-- P 1 \n. . . \n . . . \n &#160;. . . \n &#160;&#160;o o .  -->
<g id="node5" class="node">
<title>P 1 \n. . . \n . . . \n &#160;. . . \n &#160;&#160;o o . </title>
<polygon fill="red" stroke="black" points="759.85,-1335 727.04,-1389 661.42,-1389 628.62,-1335 661.42,-1281 727.04,-1281 759.85,-1335"/>
<text text-anchor="middle" x="694.23" y="-1357.9" font-family="Monospace" font-size="12.00" fill="white">P 1 </text>
<text text-anchor="middle" x="694.23" y="-1344.9" font-family="Monospace" font-size="12.00" fill="white">. . . </text>
<text text-anchor="middle" x="694.23" y="-1331.9" font-family="Monospace" font-size="12.00" fill="white"> . . . </text>
<text text-anchor="middle" x="694.23" y="-1318.9" font-family="Monospace" font-size="12.00" fill="white"> &#160;. . . </text>
<text text-anchor="middle" x="694.23" y="-1305.9" font-family="Monospace" font-size="12.00" fill="white"> &#160;&#160;o o . </text>
</g>
<!-- P 0 \n. x . \n . x . \n &#160;. . . \n &#160;&#160;. . . &#45;&gt;P 1 \n. . . \n . . . \n &#160;. . . \n &#160;&#160;o o .  -->
<g id="edge4" class="edge">
<title>P 0 \n. x . \n . x . \n &#160;. . . \n &#160;&#160;. . . &#45;&gt;P 1 \n. . . \n . . . \n &#160;. . . \n &#160;&#160;o o . </title>
<path fill="none" stroke="black" d="M815.84,-1563.82C790.73,-1516.78 754.08,-1448.12 727.59,-1398.48"/>
<polygon fill="black" stroke="black" points="730.56,-1396.62 722.76,-1389.44 724.38,-1399.91 730.56,-1396.62"/>
<text text-anchor="middle" x="837.73" y="-1536.9" font-family="Monospace" font-size="12.00">b4: 1.00</text>
</g>
<!-- P 1 \n. x o \n . . . \n &#160;. . . \n &#160;&#160;. . .  -->
<g id="node9" class="node">
<title>P 1 \n. x o \n . . . \n &#160;. . . \n &#160;&#160;. . . </title>
<polygon fill="red" stroke="black" points="1095.85,-1461 1063.04,-1515 997.42,-1515 964.62,-1461 997.42,-1407 1063.04,-1407 1095.85,-1461"/>
<text text-anchor="middle" x="1030.23" y="-1483.9" font-family="Monospace" font-size="12.00" fill="white">P 1 </text>
<text text-anchor="middle" x="1030.23" y="-1470.9" font-family="Monospace" font-size="12.00" fill="white">. x o </text>
<text text-anchor="middle" x="1030.23" y="-1457.9" font-family="Monospace" font-size="12.00" fill="white"> . . . </text>
<text text-anchor="middle" x="1030.23" y="-1444.9" font-family="Monospace" font-size="12.00" fill="white"> &#160;. . . </text>
<text text-anchor="middle" x="1030.23" y="-1431.9" font-family="Monospace" font-size="12.00" fill="white"> &#160;&#160;. . . </text>
</g>
<!-- P 0 \n. x . \n . x . \n &#160;. . . \n &#160;&#160;. . . &#45;&gt;P 1 \n. x o \n . . . \n &#160;. . . \n &#160;&#160;. . .  -->
<g id="edge9" class="edge">
<title>P 0 \n. x . \n . x . \n &#160;. . . \n &#160;&#160;. . . &#45;&gt;P 1 \n. x o \n . . . \n &#160;. . . \n &#160;&#160;. . . </title>
<path fill="none" stroke="black" d="M887.84,-1580.66C915.13,-1557.92 950.4,-1528.53 979.01,-1504.68"/>
<polygon fill="black" stroke="black" points="981.45,-1507.2 986.9,-1498.11 976.97,-1501.83 981.45,-1507.2"/>
<text text-anchor="middle" x="973.73" y="-1536.9" font-family="Monospace" font-size="12.00">b1: 1.00</text>
</g>
<!-- P 0 \n. x . \n . x . \n &#160;x . . \n &#160;&#160;. . .  -->
<g id="node6" class="node">
<title>P 0 \n. x . \n . x . \n &#160;x . . \n &#160;&#160;. . . </title>
<polygon fill="black" stroke="black" points="816.85,-895 784.04,-949 718.42,-949 685.62,-895 718.42,-841 784.04,-841 816.85,-895"/>
<text text-anchor="middle" x="751.23" y="-917.9" font-family="Monospace" font-size="12.00" fill="white">P 0 </text>
<text text-anchor="middle" x="751.23" y="-904.9" font-family="Monospace" font-size="12.00" fill="white">. x . </text>
<text text-anchor="middle" x="751.23" y="-891.9" font-family="Monospace" font-size="12.00" fill="white"> . x . </text>
<text text-anchor="middle" x="751.23" y="-878.9" font-family="Monospace" font-size="12.00" fill="white"> &#160;x . . </text>
<text text-anchor="middle" x="751.23" y="-865.9" font-family="Monospace" font-size="12.00" fill="white"> &#160;&#160;. . . </text>
</g>
<!-- P 1 \n. . . \n . . . \n &#160;. . . \n &#160;&#160;o o . &#45;&gt;P 0 \n. x . \n . x . \n &#160;x . . \n &#160;&#160;. . .  -->
<g id="edge5" class="edge">
<title>P 1 \n. . . \n . . . \n &#160;. . . \n &#160;&#160;o o . &#45;&gt;P 0 \n. x . \n . x . \n &#160;x . . \n &#160;&#160;. . . </title>
<path fill="none" stroke="black" d="M701.16,-1280.73C711.71,-1199.7 731.74,-1045.77 743.01,-959.2"/>
<polygon fill="black" stroke="black" points="746.48,-959.61 744.3,-949.24 739.54,-958.71 746.48,-959.61"/>
<text text-anchor="middle" x="751.73" y="-1127.9" font-family="Monospace" font-size="12.00">a3: 1.00</text>
</g>
<!-- P 1 \n. . . \n . . . \n &#160;. . . \n &#160;&#160;o o O  -->
<g id="node7" class="node">
<title>P 1 \n. . . \n . . . \n &#160;. . . \n &#160;&#160;o o O </title>
<ellipse fill="red" stroke="black" cx="226.23" cy="-729" rx="59.3" ry="59.3"/>
<ellipse fill="none" stroke="black" cx="226.23" cy="-729" rx="63.29" ry="63.29"/>
<text text-anchor="middle" x="226.23" y="-751.9" font-family="Monospace" font-size="12.00" fill="white">P 1 </text>
<text text-anchor="middle" x="226.23" y="-738.9" font-family="Monospace" font-size="12.00" fill="white">. . . </text>
<text text-anchor="middle" x="226.23" y="-725.9" font-family="Monospace" font-size="12.00" fill="white"> . . . </text>
<text text-anchor="middle" x="226.23" y="-712.9" font-family="Monospace" font-size="12.00" fill="white"> &#160;. . . </text>
<text text-anchor="middle" x="226.23" y="-699.9" font-family="Monospace" font-size="12.00" fill="white"> &#160;&#160;o o O </text>
</g>
<!-- P 0 \n. x . \n . x . \n &#160;x . . \n &#160;&#160;. . . &#45;&gt;P 1 \n. . . \n . . . \n &#160;. . . \n &#160;&#160;o o O  -->
<g id="edge6" class="edge">
<title>P 0 \n. x . \n . x . \n &#160;x . . \n &#160;&#160;. . . &#45;&gt;P 1 \n. . . \n . . . \n &#160;. . . \n &#160;&#160;o o O </title>
<path fill="none" stroke="black" d="M696.53,-876.91C600.65,-846.96 402.36,-785.02 296.48,-751.94"/>
<polygon fill="black" stroke="black" points="297.43,-748.57 286.84,-748.93 295.34,-755.26 297.43,-748.57"/>
<text text-anchor="middle" x="550.73" y="-813.9" font-family="Monospace" font-size="12.00">c4: 1.00</text>
</g>
<!-- P 1 \n. x o \n . x . \n &#160;x o . \n &#160;&#160;. . .  -->
<g id="node12" class="node">
<title>P 1 \n. x o \n . x . \n &#160;x o . \n &#160;&#160;. . . </title>
<polygon fill="red" stroke="black" points="816.85,-729 784.04,-783 718.42,-783 685.62,-729 718.42,-675 784.04,-675 816.85,-729"/>
<text text-anchor="middle" x="751.23" y="-751.9" font-family="Monospace" font-size="12.00" fill="white">P 1 </text>
<text text-anchor="middle" x="751.23" y="-738.9" font-family="Monospace" font-size="12.00" fill="white">. x o </text>
<text text-anchor="middle" x="751.23" y="-725.9" font-family="Monospace" font-size="12.00" fill="white"> . x . </text>
<text text-anchor="middle" x="751.23" y="-712.9" font-family="Monospace" font-size="12.00" fill="white"> &#160;x o . </text>
<text text-anchor="middle" x="751.23" y="-699.9" font-family="Monospace" font-size="12.00" fill="white"> &#160;&#160;. . . </text>
</g>
<!-- P 0 \n. x . \n . x . \n &#160;x . . \n &#160;&#160;. . . &#45;&gt;P 1 \n. x o \n . x . \n &#160;x o . \n &#160;&#160;. . .  -->
<g id="edge13" class="edge">
<title>P 0 \n. x . \n . x . \n &#160;x . . \n &#160;&#160;. . . &#45;&gt;P 1 \n. x o \n . x . \n &#160;x o . \n &#160;&#160;. . . </title>
<path fill="none" stroke="black" d="M751.23,-840.75C751.23,-825.64 751.23,-809.03 751.23,-793.38"/>
<polygon fill="black" stroke="black" points="754.73,-793.26 751.23,-783.26 747.73,-793.26 754.73,-793.26"/>
<text text-anchor="middle" x="781.73" y="-813.9" font-family="Monospace" font-size="12.00">a3: 0.50</text>
</g>
<!-- P 1 \n. x o \n . x o \n &#160;. o . \n &#160;&#160;. . .  -->
<g id="node17" class="node">
<title>P 1 \n. x o \n . x o \n &#160;. o . \n &#160;&#160;. . . </title>
<polygon fill="red" stroke="black" points="1352.85,-729 1320.04,-783 1254.42,-783 1221.62,-729 1254.42,-675 1320.04,-675 1352.85,-729"/>
<text text-anchor="middle" x="1287.23" y="-751.9" font-family="Monospace" font-size="12.00" fill="white">P 1 </text>
<text text-anchor="middle" x="1287.23" y="-738.9" font-family="Monospace" font-size="12.00" fill="white">. x o </text>
<text text-anchor="middle" x="1287.23" y="-725.9" font-family="Monospace" font-size="12.00" fill="white"> . x o </text>
<text text-anchor="middle" x="1287.23" y="-712.9" font-family="Monospace" font-size="12.00" fill="white"> &#160;. o . </text>
<text text-anchor="middle" x="1287.23" y="-699.9" font-family="Monospace" font-size="12.00" fill="white"> &#160;&#160;. . . </text>
</g>
<!-- P 0 \n. x . \n . x . \n &#160;x . . \n &#160;&#160;. . . &#45;&gt;P 1 \n. x o \n . x o \n &#160;. o . \n &#160;&#160;. . .  -->
<g id="edge18" class="edge">
<title>P 0 \n. x . \n . x . \n &#160;x . . \n &#160;&#160;. . . &#45;&gt;P 1 \n. x o \n . x o \n &#160;. o . \n &#160;&#160;. . . </title>
<path fill="none" stroke="black" d="M806.07,-877.22C905.69,-846.74 1115.87,-782.43 1222.4,-749.84"/>
<polygon fill="black" stroke="black" points="1223.53,-753.15 1232.07,-746.88 1221.48,-746.46 1223.53,-753.15"/>
<text text-anchor="middle" x="1049.73" y="-813.9" font-family="Monospace" font-size="12.00">c2: 0.50</text>
</g>
<!-- P 1 \n. . o \n . . . \n &#160;. . . \n &#160;&#160;. . . &#45;&gt;P 0 \n. x . \n . x . \n &#160;. . . \n &#160;&#160;. . .  -->
<g id="edge8" class="edge">
<title>P 1 \n. . o \n . . . \n &#160;. . . \n &#160;&#160;. . . &#45;&gt;P 0 \n. x . \n . x . \n &#160;. . . \n &#160;&#160;. . . </title>
<path fill="none" stroke="black" d="M1064.01,-1746.11C1018.33,-1719.69 949.7,-1680 901.31,-1652.01"/>
<polygon fill="black" stroke="black" points="902.93,-1648.9 892.52,-1646.93 899.42,-1654.96 902.93,-1648.9"/>
<text text-anchor="middle" x="1017.73" y="-1693.9" font-family="Monospace" font-size="12.00">b1: 1.00</text>
</g>
<!-- P 1 \n. x o \n . x . \n &#160;. . . \n &#160;&#160;. . .  -->
<g id="node10" class="node">
<title>P 1 \n. x o \n . x . \n &#160;. . . \n &#160;&#160;. . . </title>
<polygon fill="red" stroke="black" points="1095.85,-1209 1063.04,-1263 997.42,-1263 964.62,-1209 997.42,-1155 1063.04,-1155 1095.85,-1209"/>
<text text-anchor="middle" x="1030.23" y="-1231.9" font-family="Monospace" font-size="12.00" fill="white">P 1 </text>
<text text-anchor="middle" x="1030.23" y="-1218.9" font-family="Monospace" font-size="12.00" fill="white">. x o </text>
<text text-anchor="middle" x="1030.23" y="-1205.9" font-family="Monospace" font-size="12.00" fill="white"> . x . </text>
<text text-anchor="middle" x="1030.23" y="-1192.9" font-family="Monospace" font-size="12.00" fill="white"> &#160;. . . </text>
<text text-anchor="middle" x="1030.23" y="-1179.9" font-family="Monospace" font-size="12.00" fill="white"> &#160;&#160;. . . </text>
</g>
<!-- P 1 \n. x o \n . . . \n &#160;. . . \n &#160;&#160;. . . &#45;&gt;P 1 \n. x o \n . x . \n &#160;. . . \n &#160;&#160;. . .  -->
<g id="edge10" class="edge">
<title>P 1 \n. x o \n . . . \n &#160;. . . \n &#160;&#160;. . . &#45;&gt;P 1 \n. x o \n . x . \n &#160;. . . \n &#160;&#160;. . . </title>
<path fill="none" stroke="black" d="M1030.23,-1406.98C1030.23,-1368 1030.23,-1314.86 1030.23,-1273.59"/>
<polygon fill="black" stroke="black" points="1033.73,-1273.37 1030.23,-1263.37 1026.73,-1273.37 1033.73,-1273.37"/>
<text text-anchor="middle" x="1060.73" y="-1331.9" font-family="Monospace" font-size="12.00">b2: 1.00</text>
</g>
<!-- P 1 \n. x o \n . x . \n &#160;. o . \n &#160;&#160;. . .  -->
<g id="node11" class="node">
<title>P 1 \n. x o \n . x . \n &#160;. o . \n &#160;&#160;. . . </title>
<polygon fill="red" stroke="black" points="1095.85,-1052 1063.04,-1106 997.42,-1106 964.62,-1052 997.42,-998 1063.04,-998 1095.85,-1052"/>
<text text-anchor="middle" x="1030.23" y="-1074.9" font-family="Monospace" font-size="12.00" fill="white">P 1 </text>
<text text-anchor="middle" x="1030.23" y="-1061.9" font-family="Monospace" font-size="12.00" fill="white">. x o </text>
<text text-anchor="middle" x="1030.23" y="-1048.9" font-family="Monospace" font-size="12.00" fill="white"> . x . </text>
<text text-anchor="middle" x="1030.23" y="-1035.9" font-family="Monospace" font-size="12.00" fill="white"> &#160;. o . </text>
<text text-anchor="middle" x="1030.23" y="-1022.9" font-family="Monospace" font-size="12.00" fill="white"> &#160;&#160;. . . </text>
</g>
<!-- P 1 \n. x o \n . x . \n &#160;. . . \n &#160;&#160;. . . &#45;&gt;P 1 \n. x o \n . x . \n &#160;. o . \n &#160;&#160;. . .  -->
<g id="edge11" class="edge">
<title>P 1 \n. x o \n . x . \n &#160;. . . \n &#160;&#160;. . . &#45;&gt;P 1 \n. x o \n . x . \n &#160;. o . \n &#160;&#160;. . . </title>
<path fill="none" stroke="black" d="M1030.23,-1154.66C1030.23,-1142.29 1030.23,-1129.01 1030.23,-1116.26"/>
<polygon fill="black" stroke="black" points="1033.73,-1116.18 1030.23,-1106.18 1026.73,-1116.18 1033.73,-1116.18"/>
<text text-anchor="middle" x="1060.73" y="-1127.9" font-family="Monospace" font-size="12.00">b3: 1.00</text>
</g>
<!-- P 1 \n. x o \n . x . \n &#160;. o . \n &#160;&#160;. . . &#45;&gt;P 0 \n. x . \n . x . \n &#160;x . . \n &#160;&#160;. . .  -->
<g id="edge12" class="edge">
<title>P 1 \n. x o \n . x . \n &#160;. o . \n &#160;&#160;. . . &#45;&gt;P 0 \n. x . \n . x . \n &#160;x . . \n &#160;&#160;. . . </title>
<path fill="none" stroke="black" d="M981.31,-1023.82C933.25,-997.12 859.92,-956.38 809.01,-928.1"/>
<polygon fill="black" stroke="black" points="810.53,-924.94 800.09,-923.15 807.13,-931.06 810.53,-924.94"/>
<text text-anchor="middle" x="929.73" y="-970.9" font-family="Monospace" font-size="12.00">a3: 1.00</text>
</g>
<!-- P 1 \n. x o \n . x . \n &#160;x o . \n &#160;&#160;o . .  -->
<g id="node13" class="node">
<title>P 1 \n. x o \n . x . \n &#160;x o . \n &#160;&#160;o . . </title>
<polygon fill="red" stroke="black" points="816.85,-553 784.04,-607 718.42,-607 685.62,-553 718.42,-499 784.04,-499 816.85,-553"/>
<text text-anchor="middle" x="751.23" y="-575.9" font-family="Monospace" font-size="12.00" fill="white">P 1 </text>
<text text-anchor="middle" x="751.23" y="-562.9" font-family="Monospace" font-size="12.00" fill="white">. x o </text>
<text text-anchor="middle" x="751.23" y="-549.9" font-family="Monospace" font-size="12.00" fill="white"> . x . </text>
<text text-anchor="middle" x="751.23" y="-536.9" font-family="Monospace" font-size="12.00" fill="white"> &#160;x o . </text>
<text text-anchor="middle" x="751.23" y="-523.9" font-family="Monospace" font-size="12.00" fill="white"> &#160;&#160;o . . </text>
</g>
<!-- P 1 \n. x o \n . x . \n &#160;x o . \n &#160;&#160;. . . &#45;&gt;P 1 \n. x o \n . x . \n &#160;x o . \n &#160;&#160;o . .  -->
<g id="edge14" class="edge">
<title>P 1 \n. x o \n . x . \n &#160;x o . \n &#160;&#160;. . . &#45;&gt;P 1 \n. x o \n . x . \n &#160;x o . \n &#160;&#160;o . . </title>
<path fill="none" stroke="black" d="M751.23,-674.85C751.23,-656.63 751.23,-636.08 751.23,-617.15"/>
<polygon fill="black" stroke="black" points="754.73,-617.13 751.23,-607.13 747.73,-617.13 754.73,-617.13"/>
<text text-anchor="middle" x="781.73" y="-637.9" font-family="Monospace" font-size="12.00">a4: 1.00</text>
</g>
<!-- P 0 \n. x . \n . x . \n &#160;x . . \n &#160;&#160;o . .  -->
<g id="node14" class="node">
<title>P 0 \n. x . \n . x . \n &#160;x . . \n &#160;&#160;o . . </title>
<polygon fill="black" stroke="black" points="816.85,-387 784.04,-441 718.42,-441 685.62,-387 718.42,-333 784.04,-333 816.85,-387"/>
<text text-anchor="middle" x="751.23" y="-409.9" font-family="Monospace" font-size="12.00" fill="white">P 0 </text>
<text text-anchor="middle" x="751.23" y="-396.9" font-family="Monospace" font-size="12.00" fill="white">. x . </text>
<text text-anchor="middle" x="751.23" y="-383.9" font-family="Monospace" font-size="12.00" fill="white"> . x . </text>
<text text-anchor="middle" x="751.23" y="-370.9" font-family="Monospace" font-size="12.00" fill="white"> &#160;x . . </text>
<text text-anchor="middle" x="751.23" y="-357.9" font-family="Monospace" font-size="12.00" fill="white"> &#160;&#160;o . . </text>
</g>
<!-- P 1 \n. x o \n . x . \n &#160;x o . \n &#160;&#160;o . . &#45;&gt;P 0 \n. x . \n . x . \n &#160;x . . \n &#160;&#160;o . .  -->
<g id="edge15" class="edge">
<title>P 1 \n. x o \n . x . \n &#160;x o . \n &#160;&#160;o . . &#45;&gt;P 0 \n. x . \n . x . \n &#160;x . . \n &#160;&#160;o . . </title>
<path fill="none" stroke="black" d="M751.23,-498.75C751.23,-483.64 751.23,-467.03 751.23,-451.38"/>
<polygon fill="black" stroke="black" points="754.73,-451.26 751.23,-441.26 747.73,-451.26 754.73,-451.26"/>
<text text-anchor="middle" x="781.73" y="-461.9" font-family="Monospace" font-size="12.00">a4: 1.00</text>
</g>
<!-- P 0 \nx x . \n . x . \n &#160;x . . \n &#160;&#160;o . .  -->
<g id="node15" class="node">
<title>P 0 \nx x . \n . x . \n &#160;x . . \n &#160;&#160;o . . </title>
<polygon fill="black" stroke="black" points="816.85,-230 784.04,-284 718.42,-284 685.62,-230 718.42,-176 784.04,-176 816.85,-230"/>
<text text-anchor="middle" x="751.23" y="-252.9" font-family="Monospace" font-size="12.00" fill="white">P 0 </text>
<text text-anchor="middle" x="751.23" y="-239.9" font-family="Monospace" font-size="12.00" fill="white">x x . </text>
<text text-anchor="middle" x="751.23" y="-226.9" font-family="Monospace" font-size="12.00" fill="white"> . x . </text>
<text text-anchor="middle" x="751.23" y="-213.9" font-family="Monospace" font-size="12.00" fill="white"> &#160;x . . </text>
<text text-anchor="middle" x="751.23" y="-200.9" font-family="Monospace" font-size="12.00" fill="white"> &#160;&#160;o . . </text>
</g>
<!-- P 0 \n. x . \n . x . \n &#160;x . . \n &#160;&#160;o . . &#45;&gt;P 0 \nx x . \n . x . \n &#160;x . . \n &#160;&#160;o . .  -->
<g id="edge16" class="edge">
<title>P 0 \n. x . \n . x . \n &#160;x . . \n &#160;&#160;o . . &#45;&gt;P 0 \nx x . \n . x . \n &#160;x . . \n &#160;&#160;o . . </title>
<path fill="none" stroke="black" d="M751.23,-332.66C751.23,-320.29 751.23,-307.01 751.23,-294.26"/>
<polygon fill="black" stroke="black" points="754.73,-294.18 751.23,-284.18 747.73,-294.18 754.73,-294.18"/>
<text text-anchor="middle" x="781.73" y="-304.9" font-family="Monospace" font-size="12.00">a1: 1.00</text>
</g>
<!-- P 1 \n. x o \n . x O \n &#160;x o . \n &#160;&#160;o . .  -->
<g id="node16" class="node">
<title>P 1 \n. x o \n . x O \n &#160;x o . \n &#160;&#160;o . . </title>
<ellipse fill="red" stroke="black" cx="751.23" cy="-63" rx="59.3" ry="59.3"/>
<ellipse fill="none" stroke="black" cx="751.23" cy="-63" rx="63.29" ry="63.29"/>
<text text-anchor="middle" x="751.23" y="-85.9" font-family="Monospace" font-size="12.00" fill="white">P 1 </text>
<text text-anchor="middle" x="751.23" y="-72.9" font-family="Monospace" font-size="12.00" fill="white">. x o </text>
<text text-anchor="middle" x="751.23" y="-59.9" font-family="Monospace" font-size="12.00" fill="white"> . x O </text>
<text text-anchor="middle" x="751.23" y="-46.9" font-family="Monospace" font-size="12.00" fill="white"> &#160;x o . </text>
<text text-anchor="middle" x="751.23" y="-33.9" font-family="Monospace" font-size="12.00" fill="white"> &#160;&#160;o . . </text>
</g>
<!-- P 0 \nx x . \n . x . \n &#160;x . . \n &#160;&#160;o . . &#45;&gt;P 1 \n. x o \n . x O \n &#160;x o . \n &#160;&#160;o . .  -->
<g id="edge17" class="edge">
<title>P 0 \nx x . \n . x . \n &#160;x . . \n &#160;&#160;o . . &#45;&gt;P 1 \n. x o \n . x O \n &#160;x o . \n &#160;&#160;o . . </title>
<path fill="none" stroke="black" d="M751.23,-175.88C751.23,-163.35 751.23,-149.77 751.23,-136.54"/>
<polygon fill="black" stroke="black" points="754.73,-136.51 751.23,-126.51 747.73,-136.51 754.73,-136.51"/>
<text text-anchor="middle" x="781.73" y="-147.9" font-family="Monospace" font-size="12.00">c2: 1.00</text>
</g>
<!-- P 0 \n. x . \n . x . \n &#160;x . . \n &#160;&#160;X . .  -->
<g id="node18" class="node">
<title>P 0 \n. x . \n . x . \n &#160;x . . \n &#160;&#160;X . . </title>
<ellipse fill="black" stroke="black" cx="1287.23" cy="-553" rx="59.3" ry="59.3"/>
<ellipse fill="none" stroke="black" cx="1287.23" cy="-553" rx="63.29" ry="63.29"/>
<text text-anchor="middle" x="1287.23" y="-575.9" font-family="Monospace" font-size="12.00" fill="white">P 0 </text>
<text text-anchor="middle" x="1287.23" y="-562.9" font-family="Monospace" font-size="12.00" fill="white">. x . </text>
<text text-anchor="middle" x="1287.23" y="-549.9" font-family="Monospace" font-size="12.00" fill="white"> . x . </text>
<text text-anchor="middle" x="1287.23" y="-536.9" font-family="Monospace" font-size="12.00" fill="white"> &#160;x . . </text>
<text text-anchor="middle" x="1287.23" y="-523.9" font-family="Monospace" font-size="12.00" fill="white"> &#160;&#160;X . . </text>
</g>
<!-- P 1 \n. x o \n . x o \n &#160;. o . \n &#160;&#160;. . . &#45;&gt;P 0 \n. x . \n . x . \n &#160;x . . \n &#160;&#160;X . .  -->
<g id="edge19" class="edge">
<title>P 1 \n. x o \n . x o \n &#160;. o . \n &#160;&#160;. . . &#45;&gt;P 0 \n. x . \n . x . \n &#160;x . . \n &#160;&#160;X . . </title>
<path fill="none" stroke="black" d="M1287.23,-674.85C1287.23,-659.76 1287.23,-643.07 1287.23,-627.03"/>
<polygon fill="black" stroke="black" points="1290.73,-626.6 1287.23,-616.6 1283.73,-626.6 1290.73,-626.6"/>
<text text-anchor="middle" x="1317.73" y="-637.9" font-family="Monospace" font-size="12.00">a4: 1.00</text>
</g>
</g>
</svg>
